<svg width="120" height="64" viewBox="0 0 120 64" fill="none" xmlns="http://www.w3.org/2000/svg">
<path d="M3.21863 35.9294C1.48293 35.642 0.45836 34.6376 0.0876277 32.9658C0.0808871 32.9426 0.0303327 32.9261 0 32.9063V32.7939C0.134812 32.1662 0.0235921 31.5318 0.0606653 30.9008C0.0808871 30.6695 0.0168515 30.4316 0.104479 30.2036C0.185366 26.7873 1.03131 23.5263 2.21765 20.3347C2.26821 20.1992 2.36258 20.077 2.43672 19.9514C2.92205 19.8655 2.92205 20.2983 3.03664 20.5461C3.63318 21.8446 4.1758 23.1629 4.74538 24.4746C6.01261 27.3853 7.26973 30.2994 8.53359 33.2136C8.67851 33.5473 8.93128 33.871 8.74928 34.2741C8.15274 35.2653 7.24276 35.7774 6.10023 35.9327C5.1397 35.8666 4.18254 35.8699 3.222 35.9327L3.21863 35.9294Z" fill="#ADADAD"/>
<path d="M89.96 55.0827C90.3004 55.0068 90.6408 54.9473 90.9913 55.0068C91.1868 55.205 91.1565 55.4528 91.143 55.6973C91.0149 57.7292 90.9273 59.7678 90.8059 61.7997C90.7621 62.5332 90.8565 63.2964 90.5296 64.0002H85.9291C85.6393 63.5905 85.7471 63.1312 85.7876 62.6918C85.8853 61.5717 85.9022 60.4517 85.9797 59.3316C86.0707 58.0431 86.0707 56.7513 86.2156 55.4693C86.2358 55.3008 86.2527 55.1323 86.3875 55.0068C86.6639 54.9242 86.92 55.0596 87.1896 55.0827C87.493 55.0068 87.803 55.0662 88.1097 55.0464C88.4535 55.0464 88.7939 55.0464 89.1377 55.0464C89.4107 55.0629 89.687 55.0068 89.9566 55.0827H89.96Z" fill="#ADADAD"/>
<path d="M90.5328 64.0001C90.6103 62.1367 90.6339 60.2666 90.7856 58.4098C90.88 57.2765 90.8262 56.1367 90.9913 55.0068C92.4675 54.8019 93.9335 54.5343 95.3625 54.1047C95.6995 54.7028 95.568 55.3536 95.504 55.9649C95.3962 57.0089 95.4096 58.053 95.3321 59.097C95.2344 60.4186 95.2108 61.7468 95.0962 63.0684C95.0794 63.2733 95.0659 63.4814 94.9041 63.6433C94.3278 63.7622 93.7548 63.8812 93.1785 64.0001H90.5328Z" fill="#ADADAD"/>
<path d="M86.3908 55.0066C86.2627 56.8832 86.1818 58.7632 86.074 60.6432C86.0099 61.7599 85.8853 62.8768 85.9291 64.0002L83.9743 64C83.6103 63.8282 83.2058 63.8381 82.825 63.7555C82.6497 62.9989 82.734 62.2324 82.8048 61.4824C82.8958 60.5143 82.916 59.5396 82.9666 58.5716C83.0205 57.5077 83.1587 56.4471 83.1182 55.3799C83.1081 55.0793 83.1452 54.7786 83.4013 54.5573C84.4023 54.6894 85.3797 54.9504 86.3908 55.0066Z" fill="#ADADAD"/>
<path d="M33.9355 63.9999H31.519C31.4853 63.9273 31.5021 63.8678 31.5729 63.8215C32.3447 63.6563 33.1131 63.6563 33.8849 63.8215C33.9557 63.8645 33.9726 63.924 33.9355 63.9999Z" fill="#ADADAD"/>
<path d="M0.104479 30.8777C0.0606653 31.5154 0.252772 32.1662 0 32.7939V30.8777C0.0337029 30.8282 0.0674059 30.8282 0.104479 30.8777Z" fill="#ADADAD"/>
<path d="M0.104479 30.8777L0.0539165 30.8776H0.00336206V30.2003C0.037065 30.2003 0.070768 30.2003 0.104471 30.2003C0.104471 30.425 0.104471 30.6497 0.104471 30.8743L0.104479 30.8777Z" fill="#ADADAD"/>
<path d="M31.5089 63.9108C31.5089 63.9405 31.5156 63.9702 31.519 63.9999L30.8281 64C30.8281 63.9669 30.8281 63.9372 30.8214 63.9042C31.0506 63.7026 31.2797 63.696 31.5056 63.9108H31.5089Z" fill="#ADADAD"/>
<path d="M33.9355 63.9999C33.9355 63.9669 33.9354 63.9373 33.9421 63.9043C33.9994 63.815 34.0871 63.782 34.1848 63.7655C34.3499 63.7523 34.5117 63.7556 34.6263 63.9009C34.6196 63.934 34.6196 63.967 34.6263 64.0001L33.9355 63.9999Z" fill="#ADADAD"/>
<path d="M54.4303 24.1177C54.2247 23.632 53.9551 23.1761 53.827 22.6607C53.5203 21.6133 53.0147 20.6419 52.5867 19.6408C50.2679 14.2223 47.9054 8.82363 45.5698 3.41173C45.4619 3.16723 45.2597 2.91944 45.4383 2.61877C46.682 3.03177 47.811 3.67274 48.9468 4.3005C49.3647 4.53177 49.813 4.72671 50.1601 5.06702C50.7398 6.14742 51.1611 7.29389 51.6498 8.41394C54.2382 14.3479 56.7996 20.2884 59.3812 26.2256C61.0293 30.0219 62.6673 33.8248 64.3153 37.621C64.4872 38.0175 64.713 38.3909 64.8613 38.7973C64.8748 39.6332 64.5411 40.3964 64.3322 41.1893C64.1468 41.8931 63.8873 42.577 63.611 43.251C63.5469 43.4063 63.4997 43.5715 63.3278 43.6541C62.9605 43.6772 62.9099 43.3766 62.8088 43.1453C61.4607 40.0197 60.1025 36.9008 58.7442 33.7785C57.4096 30.7091 56.1188 27.6232 54.7302 24.5737C54.6561 24.4085 54.6325 24.2003 54.4269 24.1144L54.4303 24.1177Z" fill="#ADADAD"/>
<path d="M19.4466 13.4295C18.2771 14.3546 17.0436 15.2071 16.0089 16.2875C14.6035 17.7577 13.316 19.3172 12.3454 21.108C12.2409 21.2996 12.0993 21.4681 11.978 21.6465C11.5837 21.6102 11.55 21.2599 11.4421 21.0088C10.5928 19.0265 9.73001 17.0507 8.86722 15.0716C8.45604 14.1267 8.06846 13.1685 7.63369 12.2335C7.53932 12.0253 7.44158 11.8205 7.58651 11.5958C7.74491 11.1366 8.14935 10.8524 8.45604 10.5187C9.43343 9.46807 10.4513 8.44384 11.5837 7.55176C12.9116 6.5011 14.2563 5.46366 15.7595 4.65088C16.1538 5.10352 16.3055 5.67841 16.5346 6.21035C17.4682 8.37115 18.4052 10.5286 19.3387 12.6894C19.4398 12.9207 19.6151 13.1553 19.4466 13.4295Z" fill="#ADADAD"/>
<path d="M7.58644 11.599C7.74484 12.3358 8.13243 12.9867 8.4189 13.6706C9.43336 16.0825 10.4815 18.4812 11.5263 20.8799C11.6443 21.1508 11.7353 21.4448 11.9746 21.6497C11.4387 22.8986 10.8354 24.1177 10.4343 25.4228C10.0131 26.7973 9.70973 28.1882 9.52436 29.6122C9.4401 30.2664 9.48392 30.914 9.41314 31.5583C9.29855 31.9316 9.45021 32.3215 9.32551 32.6949C9.28507 33.2763 9.10644 33.8083 8.74582 34.2741C8.53012 33.3193 8.03132 32.4702 7.65385 31.5814C6.53828 28.9647 5.39238 26.3611 4.26333 23.7543C3.79486 22.6739 3.34324 21.5836 2.86129 20.5098C2.77029 20.305 2.73996 20.0175 2.43326 19.958C2.84444 18.7124 3.48816 17.5693 4.12852 16.4327C4.96772 14.9492 5.92152 13.5351 7.00338 12.2069C7.18201 11.9856 7.364 11.7807 7.58307 11.6023L7.58644 11.599Z" fill="#ADADAD"/>
<path d="M108.24 19.403C107.671 19.1684 107.297 18.6927 106.936 18.2532C104.998 15.8678 102.713 13.8887 99.99 12.4085C99.8586 12.3358 99.7406 12.2433 99.6193 12.1574C99.444 11.9327 99.4373 11.6717 99.4373 11.4074C99.4373 8.65521 99.4305 5.8997 99.4406 3.14749C99.4406 2.83362 99.4137 2.49661 99.7339 2.28516C101.166 2.68824 102.511 3.30608 103.812 3.99331C105.403 4.83582 106.956 5.74772 108.365 6.87107C108.513 7.12217 108.547 7.3964 108.547 7.68384C108.547 11.2819 108.547 14.8832 108.54 18.4812C108.54 18.8116 108.574 19.1684 108.24 19.403Z" fill="#ADADAD"/>
<path d="M87.4457 41.1267C86.2729 39.7522 86.3672 37.0529 87.4659 35.6223C88.3355 34.489 89.4982 33.9207 90.8767 33.6828C92.272 33.5936 93.6673 33.663 95.066 33.6432C95.6962 33.6333 96.3298 33.6432 96.9634 33.6432C98.2711 33.6432 99.5754 33.6432 100.883 33.6432C102.332 33.6432 103.782 33.6432 105.234 33.6432C106.34 33.6432 107.448 33.6432 108.554 33.6432C108.77 33.6531 108.776 33.7555 108.652 33.8844C108.46 34.0826 108.197 34.1553 107.94 34.2379C105.669 34.9846 103.414 35.7742 101.143 36.5242C96.8387 37.9516 92.5618 39.4482 88.2512 40.8491C87.9816 40.9383 87.7491 41.13 87.4491 41.13L87.4457 41.1267Z" fill="#ADADAD"/>
<path d="M64.7737 38.7676C64.1805 37.9714 63.9075 37.0231 63.5132 36.1377C62.3471 33.5143 61.2214 30.8744 60.0789 28.2379C59.0711 25.9119 58.0668 23.5892 57.0624 21.2632C55.9368 18.663 54.8145 16.0627 53.6888 13.4625C52.6676 11.1035 51.6363 8.74775 50.6252 6.38541C50.4432 5.9592 50.1533 5.56273 50.1635 5.07043C51.188 5.57925 52.0508 6.31603 52.9608 6.98674C53.3046 7.24114 53.6247 7.53189 53.955 7.80612C54.5482 9.64974 55.4211 11.3843 56.1828 13.1586C58.3802 18.2929 60.6248 23.4075 62.8425 28.5352C63.5132 30.0881 64.1906 31.641 64.8579 33.1971C64.986 33.4945 65.1781 33.7522 65.3264 34.033C65.4848 34.4692 65.4646 34.9185 65.4612 35.3678C65.5185 36.3855 65.2489 37.3634 65.0736 38.348C65.0433 38.5165 65.0433 38.7379 64.7838 38.7676H64.7737Z" fill="#ADADAD"/>
<path d="M94.904 63.6464C95.0186 61.8457 95.1871 60.0484 95.2275 58.2444C95.2579 56.8633 95.4399 55.4889 95.3657 54.1078C96.8723 53.6453 98.3215 53.0472 99.6999 52.2906C100.371 51.9239 101.024 51.5274 101.688 51.1475C102.009 51.3061 101.988 51.61 101.982 51.8842C101.961 52.8556 101.887 53.827 101.837 54.7983C101.773 55.9911 101.695 57.1871 101.645 58.3832C101.608 59.2984 101.479 60.2102 101.52 61.1288C101.527 61.3204 101.479 61.5021 101.351 61.6541C99.9392 62.4008 98.4057 62.8072 96.8723 63.2136C96.2252 63.3854 95.5612 63.5076 94.9074 63.6497L94.904 63.6464Z" fill="#ADADAD"/>
<path d="M87.4457 41.1267C87.5974 40.9185 87.8232 40.8358 88.0625 40.7532C91.244 39.6926 94.4222 38.6287 97.6004 37.5582C101.085 36.3853 104.567 35.2091 108.052 34.0362C108.288 33.9569 108.52 33.8743 108.709 33.7058C108.908 33.5736 109.134 33.6661 109.343 33.6364C110.856 33.6628 112.372 33.5802 113.886 33.6794C114.344 33.7653 114.802 33.8479 115.261 33.9338C115.271 34.3137 114.947 34.3732 114.695 34.4723C113.431 34.9646 112.126 35.3578 110.842 35.784C106.488 37.2344 102.154 38.7344 97.7959 40.175C95.4165 40.9613 93.0573 41.7972 90.6745 42.5703C90.3812 42.6662 90.1217 42.828 89.8386 42.9437C88.8039 42.6331 88.0861 41.9294 87.4457 41.1232L87.4457 41.1267Z" fill="#ADADAD"/>
<path d="M19.4466 13.4295C18.9141 11.913 18.1962 10.4691 17.5761 8.98559C17.0099 7.62105 16.3931 6.27964 15.8033 4.92501C15.7662 4.84241 15.773 4.74339 15.7595 4.65088C17.6131 3.53414 19.5578 2.60893 21.6272 1.94153C21.9237 2.15959 21.9844 2.51312 22.1158 2.81708C23.1438 5.21907 24.2189 7.60123 25.23 10.0098C25.3075 10.1915 25.4659 10.37 25.3109 10.5847C24.0672 11.0836 22.8 11.5396 21.6204 12.1838C20.8891 12.5836 20.1712 13.0131 19.4499 13.4294L19.4466 13.4295Z" fill="#ADADAD"/>
<path d="M65.3197 34.0296C64.6625 33.6662 64.6019 32.9459 64.3424 32.3711C63.0347 29.447 61.7776 26.4999 60.507 23.5594C59.2667 20.6882 58.0332 17.8138 56.7895 14.9426C55.8829 12.8446 54.9662 10.7499 54.0461 8.65845C53.9248 8.38092 53.8136 8.11 53.945 7.80603C55.3066 8.90956 56.5603 10.1122 57.6321 11.49C58.3601 12.7124 58.8252 14.0472 59.388 15.3391C61.1945 19.4823 62.9976 23.6254 64.7805 27.7785C64.8985 28.0561 64.9726 28.3468 65.0838 28.6243L65.2287 29.751C65.313 29.9228 65.2557 30.1078 65.2726 30.2862C65.2928 30.5208 65.2287 30.762 65.313 30.9933C65.3265 31.6673 65.34 32.3446 65.3501 33.0186C65.404 33.2466 65.4074 33.4746 65.3501 33.6992C65.3366 33.8116 65.3265 33.9206 65.313 34.0329L65.3197 34.0296Z" fill="#ADADAD"/>
<path d="M47.3898 14.5627C46.1091 13.6673 44.8284 12.762 43.4196 12.0616C42.8703 11.7873 42.3142 11.523 41.7648 11.2521C41.4244 9.97676 40.8009 8.80716 40.2886 7.5979C39.3584 5.39746 38.381 3.21353 37.4542 1.00979C37.3801 0.837981 37.1239 0.596791 37.5149 0.451416C39.0045 0.590183 40.4639 0.880932 41.8727 1.37653C42.0749 1.51199 42.1524 1.72344 42.2434 1.93159C43.9387 5.82367 45.6171 9.72236 47.3056 13.6144C47.4336 13.9085 47.6561 14.2191 47.3898 14.5594V14.5627Z" fill="#ADADAD"/>
<path d="M37.5148 0.454785C37.3833 0.53408 37.4238 0.629895 37.4743 0.74223C38.7887 3.75876 40.1133 6.77198 41.3906 9.80502C41.5794 10.2511 42.0648 10.6673 41.7648 11.2521C40.7874 10.9713 39.8672 10.5286 38.8696 10.3072C38.1079 10.1387 37.3463 9.96361 36.5846 9.79181C36.1801 9.29951 36.015 8.69158 35.769 8.1266C34.7309 5.75105 33.6996 3.36889 32.6717 0.986724C32.5402 0.682759 32.3447 0.385401 32.4459 0.0252686C32.7896 0.0252686 33.1368 0.0252686 33.4805 0.0252686C33.7502 0.114476 34.0299 0.0450924 34.3063 0.0682202C34.4916 0.08474 34.6837 0.0318765 34.8624 0.111172C35.7487 0.220203 36.6486 0.220203 37.5148 0.458089V0.454785Z" fill="#ADADAD"/>
<path d="M47.3898 14.5627C47.4404 13.9448 47.0696 13.4559 46.8472 12.9306C45.6136 10.0198 44.3498 7.11888 43.096 4.21469C42.6882 3.26975 42.2804 2.32482 41.8726 1.37988C42.8163 1.53187 43.6892 1.90521 44.5722 2.24552C44.8654 2.35786 45.1519 2.49332 45.4417 2.61887C45.9372 4.09575 46.6483 5.48672 47.255 6.91734C48.2593 9.28298 49.3142 11.6255 50.332 13.9878C51.5049 16.707 52.6609 19.4361 53.8203 22.1619C53.8877 22.3204 54.063 22.4889 53.8338 22.6575C53.2035 21.5704 52.634 20.4504 51.8992 19.4196C50.7264 17.7808 49.4018 16.2841 47.8245 15.0055C47.6661 14.8766 47.5347 14.7081 47.3931 14.5594L47.3898 14.5627Z" fill="#ADADAD"/>
<path d="M25.3075 10.5848C24.4043 8.48348 23.4943 6.38215 22.6012 4.27752C22.2709 3.50109 21.8631 2.75761 21.6272 1.94153C23.1573 1.37655 24.711 0.897563 26.3422 0.705933C26.6624 0.957034 26.7298 1.3436 26.8781 1.68391C27.9229 4.09911 28.9778 6.5077 30.0192 8.92621C30.1068 9.13106 30.2349 9.3293 30.1371 9.56718C29.3653 9.68943 28.5902 9.78194 27.8285 9.94383C26.9825 10.1256 26.1501 10.3667 25.3109 10.5847L25.3075 10.5848Z" fill="#ADADAD"/>
<path d="M89.8351 42.9472C89.9093 42.6003 90.2328 42.5705 90.489 42.4846C93.7784 41.3811 97.0745 40.2908 100.361 39.184C105.005 37.6212 109.646 36.0551 114.283 34.4758C114.63 34.3568 115.045 34.3172 115.257 33.9406C116.029 34.1652 116.744 34.4923 117.337 35.0375C117.364 35.4505 117.017 35.5033 116.744 35.5991C115.662 35.9758 114.573 36.3359 113.488 36.6961C109.157 38.1333 104.843 39.6135 100.516 41.0606C98.3991 41.7677 96.2791 42.4714 94.1761 43.2148C93.074 43.1884 91.9719 43.2644 90.8698 43.1751C90.5126 43.152 90.1452 43.1818 89.8385 42.9472H89.8351Z" fill="#ADADAD"/>
<path d="M73.1591 60.4087C71.9761 59.8767 70.8943 59.173 69.8427 58.4296C69.2327 57.9968 68.5519 57.6465 68.0969 57.0254C68.1913 56.6256 68.589 56.6553 68.862 56.5496C69.3237 56.3745 69.5495 56.1366 69.5765 55.6146C69.6877 53.5827 69.7989 51.5507 69.8967 49.5155C69.9337 48.7324 70.0112 47.9494 70.018 47.1663C70.018 46.902 70.018 46.5848 70.4123 46.532C71.42 47.7545 72.5626 48.8448 73.7455 49.8987C73.9444 50.3216 74.0522 50.7346 73.5838 51.0683C73.331 51.0254 73.5399 50.7875 73.4152 50.6884C73.5029 51.0815 73.5029 51.4945 73.7017 51.8613C73.8028 52.1124 73.8096 52.3767 73.7927 52.6344C73.6444 54.8481 73.5197 57.065 73.4287 59.2853C73.4119 59.6653 73.4254 60.075 73.1557 60.4087H73.1591Z" fill="#ADADAD"/>
<path d="M80.0612 63.1113C78.858 62.8834 77.7324 62.434 76.5932 62.0144C76.3674 61.9318 76.1483 61.8261 75.9225 61.7303C75.6327 61.2809 75.7169 60.7787 75.7776 60.3063C75.9023 59.3184 75.8955 58.3239 75.9528 57.336C76.0472 55.7303 76.1416 54.1245 76.2157 52.5155C76.2292 52.2545 76.2427 51.9869 76.5056 51.8184C77.1392 52.1322 77.7661 52.456 78.4064 52.7534C79.1479 53.1003 79.8961 53.4274 80.6443 53.7644C80.7757 53.8966 80.8128 54.0585 80.796 54.2303C80.6544 55.7963 80.6274 57.3657 80.5263 58.9351C80.4589 60.0155 80.3882 61.0992 80.3578 62.1829C80.3477 62.5133 80.3983 62.8701 80.0646 63.1047L80.0612 63.1113Z" fill="#ADADAD"/>
<path d="M64.7737 38.7676C65.0736 37.7863 65.1816 36.772 65.34 35.7676C65.3602 35.6288 65.2759 35.4603 65.4546 35.3645C65.6568 35.9559 65.7276 36.5738 65.7815 37.1916C65.9534 38.7114 65.7377 40.2213 65.6601 41.7346C65.6163 42.5572 65.5658 43.3832 65.5354 44.2059C65.4444 46.7533 65.2321 49.294 65.158 51.8414C65.1411 52.4196 65.0434 52.9978 65.0501 53.5793C65.0501 53.7643 65.0366 53.9559 64.8749 54.098C63.493 52.7269 62.3236 51.1905 61.2046 49.6145C60.9822 49.3007 60.753 48.9934 60.5272 48.6828C60.3317 48.4482 60.5541 48.3029 60.6586 48.1476C60.9754 47.6784 61.3192 47.2258 61.5821 46.7269C62.091 45.9075 62.5055 45.0418 62.91 44.1729C63.0044 43.968 63.0684 43.7467 63.2773 43.6178C63.9683 42.0583 64.4603 40.4427 64.7738 38.7709L64.7737 38.7676Z" fill="#ADADAD"/>
<path d="M70.4123 46.5352C70.2101 46.6872 70.1696 46.902 70.1696 47.1365C70.1629 47.8469 70.1426 48.5539 70.0752 49.2643C69.9674 50.4174 70.0618 51.5903 69.9135 52.7368C69.7921 53.6685 69.7618 54.6134 69.7719 55.5253C69.782 56.4141 69.2967 56.5396 68.717 56.7841C68.5114 56.87 68.2519 56.8337 68.0935 57.0253C67.5576 56.8205 67.2948 56.2918 66.8297 56.0077C66.7353 55.8425 66.6611 55.6707 66.6814 55.4758C66.833 53.8932 66.8229 52.3006 66.9678 50.718C67.042 49.8987 67.0622 49.0727 67.0959 48.2533C67.1667 46.5154 67.3082 44.7808 67.352 43.0429C67.3588 42.7852 67.3453 42.5044 67.6453 42.3623C68.5081 43.7929 69.3439 45.2368 70.4123 46.5352Z" fill="#ADADAD"/>
<path d="M67.6451 42.3589C67.6046 42.501 67.5372 42.6431 67.5305 42.7852C67.4833 43.8656 67.4698 44.9493 67.4058 46.0264C67.2676 48.2929 67.1598 50.5627 67.0384 52.8325C66.9811 53.8898 66.9912 54.9537 66.8328 56.0043C66.607 55.8094 66.3812 55.6145 66.1554 55.4162C65.7577 54.99 65.3566 54.5671 64.8983 54.1971C64.8882 54.164 64.8781 54.131 64.8747 54.0947C64.9522 52.1552 64.9994 50.2125 65.1241 48.2764C65.2151 46.8821 65.269 45.4845 65.3499 44.0902C65.478 41.8567 65.6465 39.6233 65.6937 37.3865C65.6937 37.3204 65.751 37.2543 65.7813 37.1882C65.9903 37.8887 66.1689 38.599 66.4183 39.2863C66.7991 40.3204 67.2339 41.3347 67.6451 42.3556V42.3589Z" fill="#ADADAD"/>
<path d="M32.4424 0.0285725C33.7905 3.15743 35.142 6.28629 36.4902 9.41515C36.5407 9.53079 36.5508 9.66625 36.5811 9.79181C35.5869 9.67947 34.5893 9.56383 33.5951 9.4515C33.4367 9.36559 33.2446 9.46471 33.0895 9.36559C32.6548 8.74114 32.4256 8.02418 32.1324 7.33695C31.219 5.21911 30.2955 3.10457 29.3856 0.98342C29.2845 0.748838 29.1193 0.510952 29.3384 0.253243C29.8574 0.0583083 30.4034 0.147515 30.9393 0.111172C31.2426 -0.00777116 31.5661 0.1343 31.8695 0.0252686C32.0616 0.0252686 32.2537 0.0252686 32.4492 0.0252686L32.4424 0.0285725Z" fill="#ADADAD"/>
<path d="M76.5024 51.8217C76.3035 52.6411 76.3204 53.4869 76.2901 54.3162C76.2496 55.4329 76.162 56.5497 76.1283 57.6664C76.0845 59.0211 75.9227 60.3724 75.9261 61.7336C74.9588 61.39 74.0556 60.9109 73.1624 60.4153C73.3006 58.1025 73.4556 55.7931 73.5264 53.477C73.5433 52.9285 73.7522 52.3834 73.5096 51.8382C73.4253 51.5739 73.4219 51.3129 73.5096 51.0486C73.9511 50.738 73.6478 50.2821 73.7455 49.9021C74.4398 50.3845 75.1475 50.8569 75.825 51.3625C76.044 51.5243 76.3608 51.5541 76.5024 51.825V51.8217Z" fill="#ADADAD"/>
<path d="M29.3351 0.25651C29.4328 1.07259 29.8979 1.75321 30.2046 2.48999C31.1618 4.78625 32.1526 7.0693 33.13 9.35565C32.6818 9.52084 32.2032 9.32921 31.7516 9.45807C31.4449 9.49441 31.1415 9.53075 30.8348 9.5671C30.6394 9.51093 30.4439 9.50102 30.2518 9.57371C30.2147 9.57371 30.1742 9.57049 30.1371 9.56718C28.9373 6.80837 27.7375 4.04947 26.5411 1.28735C26.4602 1.09902 26.4096 0.900784 26.3456 0.70585C26.8815 0.458052 27.4747 0.428316 28.0409 0.368845C28.4689 0.325893 28.8935 0.137567 29.3351 0.253206V0.25651Z" fill="#ADADAD"/>
<path d="M80.0612 63.1113C80.3275 62.3184 80.1861 61.4825 80.2535 60.673C80.3377 59.695 80.3849 58.7071 80.4153 57.7192C80.4591 56.401 80.5602 55.086 80.6377 53.7677C81.5578 54.032 82.4779 54.293 83.398 54.5574C83.1452 55.4692 83.2733 56.4142 83.2059 57.3393C83.125 58.4692 83.0946 59.6157 83.0205 60.749C82.9565 61.7501 83.0508 62.7644 82.8217 63.7556C81.8915 63.5706 80.9511 63.4417 80.058 63.108L80.0612 63.1113Z" fill="#ADADAD"/>
<path d="M94.328 43.142C94.4426 42.9471 94.6481 42.8876 94.847 42.8215C98.6521 41.5429 102.46 40.2642 106.266 38.9823C109.781 37.7962 113.296 36.6067 116.815 35.4239C117.044 35.3479 117.239 35.2587 117.344 35.0374C117.725 35.3446 118.072 35.6849 118.385 36.0583C118.267 36.2565 118.051 36.2995 117.856 36.3655C114.455 37.5153 111.055 38.6651 107.651 39.8116C104.773 40.7797 101.901 41.7675 99.0127 42.7092C98.5779 42.8512 98.1634 43.0495 97.732 43.2081C97.6309 43.2147 97.5331 43.2147 97.432 43.2147C96.5793 43.2147 95.7266 43.218 94.8773 43.2114C94.6953 43.2114 94.4965 43.2775 94.3313 43.142H94.328Z" fill="#ADADAD"/>
<path d="M108.24 19.403C108.338 19.0958 108.365 18.7852 108.362 18.4614C108.358 14.5991 108.362 10.7334 108.362 6.87109C108.975 7.36008 109.589 7.84907 110.202 8.33806C110.357 8.58916 110.384 8.86339 110.384 9.14753C110.384 12.5704 110.384 15.9934 110.384 19.4163C110.384 19.6046 110.384 19.7896 110.323 19.9713C110.293 20.0407 110.249 20.1035 110.195 20.1564C109.514 19.9779 108.79 19.902 108.24 19.3998L108.24 19.403Z" fill="#ADADAD"/>
<path d="M97.7791 43.1421C98.0992 42.7753 98.5711 42.7125 98.9957 42.5672C102.262 41.4603 105.531 40.3766 108.8 39.2797C111.995 38.2092 115.187 37.1321 118.382 36.0583C118.678 36.2467 118.83 36.5374 118.955 36.8447C118.83 37.1553 118.523 37.1982 118.26 37.2841C115.83 38.0903 113.41 38.9196 110.981 39.7324C107.937 40.75 104.907 41.8073 101.85 42.7885C101.47 42.9108 101.136 43.1553 100.731 43.2147C99.9293 43.2147 99.1272 43.2181 98.325 43.2114C98.143 43.2114 97.9442 43.2775 97.7757 43.1421H97.7791Z" fill="#ADADAD"/>
<path d="M99.7338 2.28189C99.6462 2.54951 99.6159 2.82374 99.6159 3.10788C99.6226 6.1244 99.6192 9.13763 99.6192 12.1542C98.8912 11.8171 98.1633 11.4768 97.4353 11.1398C97.3308 11.011 97.3476 10.859 97.351 10.7103C97.3847 7.96472 97.351 5.22242 97.3679 2.47682C97.3679 2.16625 97.3005 1.83585 97.5532 1.57153C98.2947 1.76647 99.053 1.90523 99.7338 2.27858V2.28189Z" fill="#ADADAD"/>
<path d="M65.0905 28.6244C64.5344 27.8149 64.248 26.8799 63.857 25.9977C62.6942 23.3777 61.5686 20.7411 60.4294 18.1111C59.543 16.066 58.6533 14.0208 57.7702 11.9757C57.7028 11.8237 57.6792 11.6519 57.6354 11.49C58.6769 12.5737 59.5464 13.7896 60.3452 15.0418C61.8382 17.3843 63.0245 19.8755 63.8435 22.5219C64.3861 24.2697 64.8142 26.0374 64.9995 27.8612C65.0265 28.1156 65.1613 28.3568 65.0872 28.6244H65.0905Z" fill="#ADADAD"/>
<path d="M100.883 43.1454C101.089 42.8712 101.409 42.7919 101.715 42.6894C104.907 41.619 108.102 40.5485 111.294 39.478C113.656 38.685 116.019 37.8888 118.378 37.0892C118.577 37.0231 118.762 36.9273 118.955 36.848C119.177 36.9703 119.248 37.1817 119.292 37.4064C119.406 37.8326 119.062 37.9119 118.789 38.011C117.873 38.3381 116.946 38.6421 116.019 38.9527C112.136 40.2478 108.267 41.576 104.385 42.8679C104.058 42.9769 103.754 43.1421 103.414 43.2181C102.804 43.2181 102.194 43.2181 101.587 43.2181C101.351 43.1883 101.105 43.2842 100.88 43.1487L100.883 43.1454Z" fill="#ADADAD"/>
<path d="M106.639 58.8326C106.299 59.1498 105.918 59.4042 105.483 59.5859C105.16 59.3645 105.21 59.0374 105.231 58.7203C105.355 56.8139 105.457 54.9042 105.537 52.9978C105.608 51.3128 105.794 49.6344 105.763 47.946C105.763 47.8535 105.773 47.7577 105.736 47.6685L107 46.2048C107.209 46.0991 107.273 46.2544 107.327 46.3932C107.401 46.5881 107.394 46.7995 107.388 47.0044C107.327 48.9835 107.189 50.9592 107.084 52.935C107.034 53.9229 106.946 54.9108 106.939 55.902C106.933 56.7247 106.771 57.5407 106.805 58.3634C106.811 58.5352 106.751 58.6938 106.639 58.8326Z" fill="#ADADAD"/>
<path d="M106.639 58.8326C106.67 56.7082 106.801 54.587 106.973 52.4692C107.03 51.7621 106.993 51.0584 107.067 50.3447C107.192 49.1024 107.172 47.8469 107.209 46.5947C107.212 46.4295 107.246 46.2412 107 46.1982C107.421 45.6002 107.843 44.9989 108.264 44.4009C108.658 44.5165 108.628 44.837 108.611 45.1311C108.459 47.9163 108.298 50.7016 108.176 53.4901C108.116 54.891 107.94 56.2886 107.998 57.6961C107.998 57.772 108.011 57.8447 108.025 57.9207C107.58 58.2478 107.165 58.6245 106.636 58.8326L106.639 58.8326Z" fill="#ADADAD"/>
<path d="M111.129 55.3402C110.788 55.8028 110.31 56.1167 109.861 56.4669C109.615 56.3083 109.612 56.0704 109.622 55.8193C109.74 53.1101 109.919 50.4008 110.04 47.6916C110.097 46.3832 110.188 45.0781 110.259 43.7697C110.269 43.6012 110.279 43.4327 110.38 43.2841C110.704 43.023 111.085 43.1387 111.445 43.1387C111.557 43.1585 111.658 43.1982 111.732 43.2907C111.813 43.8887 111.786 44.49 111.745 45.0847C111.563 47.9427 111.415 50.8039 111.28 53.6651C111.253 54.2235 111.226 54.7852 111.129 55.3402Z" fill="#ADADAD"/>
<path d="M101.348 61.6475C101.274 59.5132 101.537 57.392 101.601 55.2609C101.635 54.1079 101.702 52.9515 101.803 51.7984C101.823 51.5737 101.81 51.349 101.685 51.1442C102.147 50.8072 102.605 50.4669 103.067 50.1299C103.387 50.2885 103.36 50.5957 103.357 50.8667C103.35 51.8777 103.263 52.8854 103.209 53.8964C103.148 55.0363 103.074 56.1761 103.027 57.316C102.983 58.3634 102.868 59.4074 102.875 60.4581C102.875 60.6596 102.875 60.8744 102.727 61.0462C102.275 61.2643 101.871 61.5748 101.352 61.6442L101.348 61.6475Z" fill="#ADADAD"/>
<path d="M110.431 43.2742C110.353 45.2103 110.313 47.1464 110.188 49.0792C110.101 50.4537 110.074 51.8347 109.942 53.1993C109.855 54.1079 109.986 55.0264 109.767 55.9251C109.727 56.0903 109.828 56.2852 109.865 56.4669C109.487 56.7775 109.181 57.1674 108.716 57.3689C108.372 56.8105 108.53 56.2026 108.571 55.6178C108.648 54.4779 108.689 53.338 108.759 52.2015C108.877 50.3546 108.945 48.5043 109.069 46.6574C109.13 45.762 109.13 44.8634 109.218 43.968C109.241 43.7268 109.208 43.479 109.363 43.2642C109.723 43.0693 110.08 43.0429 110.434 43.2775L110.431 43.2742Z" fill="#ADADAD"/>
<path d="M110.205 20.0737C110.205 16.1618 110.205 12.2499 110.205 8.33801C110.623 8.67832 111.007 9.04837 111.358 9.45475C111.513 9.72568 111.537 10.0197 111.537 10.3237C111.537 13.3039 111.537 16.2841 111.537 19.2642C111.537 19.5253 111.567 19.7929 111.398 20.0242C111.007 20.2026 110.606 20.1134 110.205 20.0704V20.0737Z" fill="#ADADAD"/>
<path d="M109.396 43.2741C109.312 45.2697 109.235 47.262 109.063 49.251C108.999 49.9944 108.995 50.7444 108.968 51.4878C108.931 52.6277 108.827 53.7642 108.8 54.9041C108.78 55.7235 108.695 56.5429 108.712 57.3656C108.567 57.6464 108.247 57.7224 108.031 57.9206C107.752 57.8876 107.782 57.6762 107.792 57.4911C107.876 55.5517 107.951 53.6123 108.119 51.6761C108.186 50.8964 108.149 50.1101 108.23 49.3237C108.348 48.1343 108.325 46.9316 108.368 45.7356C108.375 45.5704 108.412 45.4052 108.446 45.24C108.507 44.9327 108.51 44.642 108.271 44.3975C108.493 44.0241 108.712 43.6508 108.935 43.2774C108.972 43.2279 109.019 43.1948 109.076 43.1783C109.201 43.1552 109.316 43.1684 109.4 43.2708L109.396 43.2741Z" fill="#ADADAD"/>
<path d="M111.129 55.3402C111.088 55.1982 111.007 55.0529 111.014 54.9141C111.071 53.8932 111.135 52.8722 111.216 51.8546C111.277 51.055 111.243 50.2588 111.331 49.4559C111.456 48.3094 111.344 47.1365 111.496 45.9967C111.617 45.0881 111.432 44.1663 111.698 43.2775C112.012 43.0528 112.332 43.0793 112.655 43.261C112.925 43.8557 112.837 44.4901 112.77 45.0914C112.659 46.0627 112.649 47.0407 112.605 48.0121C112.517 49.8656 112.332 51.7158 112.342 53.5727C112.342 53.8403 112.305 54.0947 112.167 54.3326C111.857 54.7026 111.51 55.0396 111.132 55.3469L111.129 55.3402Z" fill="#ADADAD"/>
<path d="M103.529 43.1454C103.643 42.9471 103.849 42.8877 104.048 42.8216C106.848 41.8833 109.649 40.9449 112.45 40.0033C114.563 39.293 116.676 38.576 118.786 37.859C119.019 37.7797 119.278 37.717 119.292 37.3998C119.43 37.6938 119.622 37.9714 119.645 38.3084C119.345 38.6289 118.928 38.7313 118.537 38.8601C115.857 39.7489 113.191 40.674 110.515 41.5628C108.871 42.1112 107.239 42.696 105.581 43.2115C104.897 43.1685 104.206 43.2974 103.525 43.1421L103.529 43.1454Z" fill="#ADADAD"/>
<path d="M114.462 51.7324C114.115 52.2082 113.747 52.6675 113.319 53.0772C112.939 52.9946 113.023 52.6741 113.026 52.4461C113.036 51.5705 113.104 50.695 113.154 49.8194C113.272 47.8271 113.38 45.8349 113.478 43.8426C113.488 43.6377 113.488 43.4296 113.623 43.2545C114.058 43.0463 114.496 43.0628 114.934 43.2346C115.042 43.3536 115.079 43.5022 115.069 43.6509C114.954 45.1972 114.944 46.7501 114.809 48.293C114.735 49.1487 114.819 50.0111 114.657 50.8668C114.604 51.1609 114.57 51.4549 114.465 51.7357L114.462 51.7324Z" fill="#ADADAD"/>
<path d="M97.5532 1.57473C97.5532 4.48883 97.5499 7.40293 97.5532 10.317C97.5532 10.6012 97.5263 10.8722 97.4353 11.1398C97.0915 11.0275 96.7444 10.915 96.4006 10.806C96.2152 10.5648 96.2152 10.2807 96.2152 9.99985C96.2152 7.35667 96.2152 4.7135 96.2152 2.06702C96.2152 1.78948 96.1748 1.49873 96.3972 1.26746C96.7882 1.35006 97.1892 1.39642 97.5532 1.57153L97.5532 1.57473Z" fill="#ADADAD"/>
<path d="M102.723 61.0528C102.727 60.2004 102.686 59.3479 102.777 58.4955C102.794 58.3468 102.831 58.2015 102.838 58.0528C102.919 56.1332 102.969 54.2103 103.084 52.2907C103.124 51.5671 103.306 50.8501 103.067 50.1332C103.414 49.8358 103.758 49.5352 104.105 49.2378C104.449 49.4162 104.412 49.7466 104.392 50.0307C104.287 51.62 104.226 53.2125 104.135 54.805C104.065 56.0208 104.001 57.2367 103.947 58.4559C103.916 59.1497 103.849 59.8369 103.768 60.5242C103.451 60.7554 103.145 61.0098 102.727 61.0561L102.723 61.0528Z" fill="#ADADAD"/>
<path d="M103.765 60.5177C103.667 60.3492 103.633 60.1708 103.643 59.9791C103.758 58.2545 103.869 56.5265 103.98 54.7985C104.027 54.0551 104.007 53.3117 104.071 52.565C104.149 51.6796 104.159 50.7809 104.216 49.8855C104.23 49.6608 104.226 49.4362 104.098 49.2346C104.442 48.934 104.789 48.63 105.133 48.3293C105.322 48.4714 105.352 48.673 105.349 48.8811C105.335 50.249 105.247 51.6135 105.153 52.9747C105.086 53.9461 105.049 54.9175 104.995 55.8888C104.934 57.0089 104.796 58.1289 104.843 59.2523C104.853 59.5331 104.823 59.8139 104.681 60.0717C104.402 60.2765 104.098 60.4285 103.761 60.521L103.765 60.5177Z" fill="#ADADAD"/>
<path d="M113.653 43.2742C113.576 45.2533 113.549 47.2357 113.4 49.2081C113.316 50.3249 113.336 51.4449 113.198 52.5584C113.178 52.7335 113.134 52.9383 113.319 53.0804C112.966 53.5231 112.635 53.989 112.163 54.326C112.083 52.1619 112.345 50.0077 112.413 47.8469C112.46 46.3238 112.625 44.804 112.618 43.2742C112.962 43.0495 113.309 43.0495 113.653 43.2742Z" fill="#ADADAD"/>
<path d="M95.5883 10.5021C95.2445 10.4162 94.9008 10.3303 94.557 10.2444C94.3716 10.0032 94.3716 9.72237 94.3716 9.43822C94.3716 6.85782 94.3716 4.27412 94.3716 1.69372C94.3716 1.41949 94.3312 1.12543 94.557 0.897461C94.9513 0.917285 95.3423 0.966844 95.7096 1.12543C95.7871 1.28403 95.7838 1.45253 95.7804 1.62103C95.7636 4.27742 95.7804 6.93712 95.7703 9.59351C95.7703 9.90408 95.8377 10.2378 95.5849 10.5021H95.5883Z" fill="#ADADAD"/>
<path d="M114.462 51.7324C114.56 49.8029 114.63 47.8734 114.789 45.9472C114.863 45.0584 114.765 44.1597 114.917 43.2743C115.298 43.0331 115.689 43.0727 116.083 43.2346C116.359 43.7038 116.248 44.2159 116.214 44.7082C116.127 45.9901 116.039 47.2688 116.016 48.554C116.009 48.9835 115.995 49.4097 115.844 49.8194C115.449 50.5033 114.957 51.1179 114.462 51.7324Z" fill="#ADADAD"/>
<path d="M104.685 60.0684C104.695 59.1598 104.627 58.2545 104.766 57.3459C104.884 56.5761 104.843 55.7831 104.877 55.0067C104.927 53.8734 104.998 52.7369 105.055 51.6036C105.099 50.7148 105.069 49.8162 105.197 48.9307C105.227 48.7126 105.096 48.5342 105.136 48.3294C105.335 48.108 105.537 47.8865 105.736 47.6685C105.901 47.6949 105.942 47.804 105.945 47.9527C105.962 49.3503 105.854 50.7413 105.746 52.1355C105.736 52.2644 105.719 52.3966 105.716 52.5254C105.639 54.4417 105.574 56.358 105.473 58.2743C105.45 58.7171 105.281 59.1499 105.483 59.5893C105.217 59.7512 104.951 59.9098 104.685 60.0717V60.0684Z" fill="#ADADAD"/>
<path d="M94.5604 0.897465C94.5604 4.01311 94.5604 7.12875 94.557 10.2444C94.2503 10.1684 93.9437 10.0957 93.637 10.0197C93.4314 9.80497 93.455 9.53404 93.455 9.27303C93.4516 6.66289 93.4516 4.05276 93.455 1.44262C93.455 1.18491 93.4247 0.910681 93.6336 0.695923C93.9302 0.821474 94.2773 0.725659 94.5604 0.897465Z" fill="#ADADAD"/>
<path d="M93.6336 0.695923C93.6336 3.80166 93.6335 6.91058 93.6335 10.0163C93.3336 9.9205 92.9898 9.97997 92.7134 9.79164C92.5045 9.58019 92.5314 9.30596 92.5314 9.04825C92.5247 6.51741 92.528 3.98657 92.5314 1.45572C92.5314 1.19141 92.5449 0.930393 92.7168 0.705723C92.7909 0.692507 92.8651 0.679291 92.9392 0.666075C93.1751 0.616516 93.4077 0.609908 93.6436 0.669379L93.6336 0.695923Z" fill="#ADADAD"/>
<path d="M115.844 49.8194C115.793 48.1575 115.914 46.5022 116.043 44.8502C116.083 44.3282 116.059 43.7995 116.066 43.2775C116.413 42.9934 116.858 43.2015 117.232 43.0594C117.377 43.0495 117.515 43.0661 117.616 43.1817C117.832 43.7202 117.761 44.2885 117.711 44.8337C117.647 45.5176 117.643 46.2048 117.576 46.8854C117.145 47.946 116.501 48.8876 115.844 49.8227L115.844 49.8194Z" fill="#ADADAD"/>
<path d="M117.563 43.1585C117.448 43.1585 117.333 43.1585 117.219 43.1585C116.002 43.2807 114.782 43.1783 113.569 43.2146C113.205 43.1122 113.464 42.9569 113.569 42.8876C113.801 42.7224 114.078 42.6298 114.347 42.5373C115.955 41.9922 117.58 41.4966 119.177 40.925C119.399 40.8457 119.642 40.7135 119.878 40.9118C119.74 42.2829 119.194 43.5219 118.604 44.751C118.294 44.5164 118.345 44.1959 118.388 43.8787C118.447 43.4382 118.245 43.2202 117.782 43.2246C117.704 43.2246 117.63 43.2014 117.566 43.1618L117.563 43.1585Z" fill="#ADADAD"/>
<path d="M95.5883 10.5021C95.5883 7.63095 95.5884 4.76309 95.5917 1.89194C95.5917 1.63093 95.558 1.36331 95.7131 1.12542C95.9591 1.09899 96.1714 1.21129 96.3972 1.26746C96.3972 4.44588 96.3972 7.62764 96.3972 10.8061C96.1276 10.7036 95.858 10.6012 95.5884 10.4988L95.5883 10.5021Z" fill="#ADADAD"/>
<path d="M92.7168 0.705723C92.7168 3.73546 92.7168 6.76541 92.7168 9.79516C92.4303 9.89427 92.1877 9.67621 91.9113 9.68282C91.7259 9.44163 91.7259 9.16079 91.7259 8.87996C91.7259 6.48788 91.7259 4.09581 91.7259 1.70704C91.7259 1.4295 91.7057 1.14206 91.9046 0.904171C92.1371 0.692717 92.4741 0.900867 92.7134 0.709237L92.7168 0.705723Z" fill="#ADADAD"/>
<path d="M105.716 43.1452C106.201 42.6199 106.933 42.6629 107.536 42.4118C109.056 41.784 110.653 41.3413 112.217 40.8225C113.943 40.2477 115.642 39.5902 117.397 39.0913C118.163 38.8765 118.901 38.5725 119.649 38.3082C119.831 38.4602 119.709 38.7113 119.844 38.8765C118.81 39.3688 117.697 39.6596 116.619 40.023C113.71 41.0043 110.809 42.0054 107.893 42.9602C107.674 43.0329 107.469 43.1287 107.256 43.208C106.801 43.2113 106.346 43.208 105.891 43.208C105.82 43.2146 105.763 43.1915 105.716 43.1419V43.1452Z" fill="#ADADAD"/>
<path d="M111.351 20.0472C111.351 16.5153 111.355 12.9867 111.358 9.45475C111.621 9.64969 111.85 9.87101 112.049 10.132C112.204 10.403 112.231 10.697 112.231 11.001C112.231 13.7135 112.231 16.4261 112.227 19.1387C112.227 19.4162 112.265 19.7069 112.045 19.9382C111.884 20.0869 111.675 20.0638 111.476 20.0803C111.422 20.1166 111.382 20.1067 111.355 20.0505L111.351 20.0472Z" fill="#ADADAD"/>
<path d="M91.9081 0.900879C91.9081 3.8282 91.9079 6.7555 91.9113 9.68282C91.6417 9.57049 91.3756 9.45816 91.106 9.34583C90.9273 9.10133 90.9206 8.8205 90.9206 8.53966C90.9206 6.34913 90.9206 4.1619 90.9206 1.97137C90.9206 1.68722 90.9273 1.40639 91.106 1.1652C91.3891 1.12224 91.6012 0.877739 91.9046 0.904171L91.9081 0.900879Z" fill="#ADADAD"/>
<path d="M107.327 43.1454C107.354 42.8843 107.6 42.9042 107.762 42.8513C111.53 41.576 115.301 40.3105 119.073 39.0451C119.325 38.9625 119.571 38.8469 119.848 38.8799C119.794 38.9923 119.807 39.1079 119.848 39.2202C119.784 39.402 119.622 39.4647 119.457 39.5209C115.864 40.75 112.275 41.9791 108.662 43.1487C108.571 43.1784 108.476 43.2015 108.382 43.2147C108.031 43.1784 107.671 43.2973 107.327 43.1454Z" fill="#ADADAD"/>
<path d="M112.042 19.935C112.042 16.6673 112.045 13.3997 112.049 10.132C112.315 10.3237 112.538 10.5583 112.736 10.8127C112.888 11.0605 112.784 11.3281 112.787 11.5858C112.814 14.1861 112.743 16.7896 112.824 19.3898C112.827 19.5087 112.794 19.6112 112.73 19.707C112.514 19.8226 112.322 20.0076 112.039 19.935H112.042Z" fill="#ADADAD"/>
<path d="M114.118 18.7257C113.96 18.9966 113.7 19.1519 113.427 19.2906C113.212 19.0825 113.242 18.8083 113.242 18.5539C113.235 16.4823 113.235 14.4074 113.242 12.3358C113.242 12.0781 113.215 11.8071 113.431 11.599C113.717 11.8171 113.973 12.0583 114.118 12.3953C114.273 12.6464 114.287 12.9239 114.287 13.208C114.283 14.7774 114.283 16.3501 114.287 17.9195C114.287 18.2036 114.273 18.4812 114.118 18.7323V18.7257Z" fill="#ADADAD"/>
<path d="M108.476 43.1453C108.608 43.0759 108.732 42.9834 108.874 42.9372C111.904 41.9196 114.937 40.9085 117.967 39.8909C118.597 39.6795 119.221 39.4449 119.848 39.2202C119.861 39.2533 119.871 39.2863 119.871 39.3193C119.949 39.4317 119.925 39.5506 119.902 39.6696C119.824 39.8447 119.662 39.9074 119.497 39.9603C116.218 41.0011 112.996 42.2169 109.7 43.2114C109.481 43.2213 109.258 43.2114 109.039 43.218C108.854 43.1916 108.652 43.2841 108.476 43.1486V43.1453Z" fill="#ADADAD"/>
<path d="M91.106 1.16174C91.106 3.89082 91.106 6.61675 91.106 9.34583C90.9037 9.22028 90.6611 9.14744 90.5263 8.92938C90.3443 8.70801 90.3477 8.44039 90.3477 8.17938C90.3477 6.23003 90.3477 4.28069 90.3477 2.32804C90.3477 2.06703 90.3443 1.79941 90.5297 1.57804C90.6611 1.35668 90.9071 1.28729 91.1093 1.16174H91.106Z" fill="#ADADAD"/>
<path d="M113.431 11.5958C113.431 14.1597 113.431 16.7235 113.427 19.2906C113.272 19.3931 113.117 19.4923 112.962 19.5947C112.8 19.4097 112.79 19.185 112.79 18.9604C112.79 16.5848 112.79 14.2092 112.79 11.837C112.79 11.576 112.784 11.3017 113.077 11.1564C113.232 11.272 113.431 11.3579 113.424 11.5991L113.431 11.5958Z" fill="#ADADAD"/>
<path d="M90.526 1.57812C90.526 4.02967 90.5263 6.47783 90.5263 8.92938C90.3005 8.90955 90.1789 8.75765 90.0677 8.58915C89.9059 8.32153 89.8857 8.02417 89.8857 7.72351C89.8857 6.07813 89.8857 4.43276 89.8857 2.78407C89.8857 2.48011 89.9059 2.18606 90.0677 1.91843C90.1789 1.75324 90.2935 1.58804 90.5294 1.58143L90.526 1.57812Z" fill="#ADADAD"/>
<path d="M119.878 40.9118C119.244 40.9845 118.671 41.2487 118.078 41.4436C116.605 41.9326 115.139 42.4448 113.67 42.9437C113.552 42.9833 113.474 43.0527 113.421 43.1584C112.996 43.2774 112.564 43.1848 112.136 43.2146C111.907 42.8908 112.248 42.871 112.396 42.8115C112.925 42.6 113.468 42.4183 114.007 42.2399C115.743 41.6749 117.465 41.067 119.197 40.4987C119.393 40.4326 119.588 40.3434 119.807 40.3996C119.983 40.4822 119.871 40.6738 119.959 40.7895C119.979 40.8588 119.939 40.8919 119.875 40.9084L119.878 40.9118Z" fill="#ADADAD"/>
<path d="M117.563 43.1585C118.661 42.9239 118.665 42.9271 118.493 43.991C118.449 44.2586 118.554 44.4965 118.604 44.7476C118.382 45.5141 117.977 46.198 117.576 46.8819C117.3 46.4359 117.408 45.9304 117.475 45.4811C117.59 44.7046 117.532 43.9316 117.563 43.1585Z" fill="#ADADAD"/>
<path d="M113.08 11.1529C112.942 11.371 112.959 11.6155 112.959 11.86C112.959 14.4371 112.959 17.0142 112.959 19.5913C112.881 19.6276 112.807 19.6673 112.73 19.7036C112.575 19.175 112.615 18.6298 112.615 18.0913C112.615 15.9767 112.615 13.8622 112.612 11.7477C112.612 11.4272 112.639 11.1166 112.736 10.8093C112.851 10.9217 112.966 11.0373 113.08 11.1496V11.1529Z" fill="#ADADAD"/>
<path d="M90.0678 1.91505C90.0678 4.13862 90.0678 6.36219 90.0678 8.58576C89.8824 8.46352 89.724 8.31814 89.6094 8.12651C89.4544 7.77629 89.4207 7.41285 89.4241 7.0362C89.4308 5.84347 89.4308 4.65073 89.4241 3.458C89.4241 3.08135 89.4611 2.71461 89.6094 2.36439C89.7274 2.17936 89.8858 2.03069 90.0678 1.91174V1.91505Z" fill="#ADADAD"/>
<path d="M89.606 2.3678C89.606 4.2874 89.606 6.20701 89.606 8.12992C89.3094 7.79292 89.1039 7.40635 88.9387 6.99666C89.0095 5.83366 89.0095 4.67067 88.9387 3.50436C89.1039 3.09137 89.3061 2.7048 89.606 2.3678Z" fill="#ADADAD"/>
<path d="M114.118 18.7257C114.118 16.6144 114.118 14.5033 114.118 12.3921C114.283 12.5077 114.469 12.6035 114.462 12.8447C114.593 13.1024 114.63 13.3734 114.63 13.6575C114.63 14.9262 114.63 16.195 114.63 17.4637C114.63 17.7478 114.593 18.0221 114.462 18.2765C114.469 18.5143 114.28 18.6135 114.115 18.7258L114.118 18.7257Z" fill="#ADADAD"/>
<path d="M114.462 18.2732C114.462 16.4626 114.462 14.652 114.462 12.8414C114.671 12.924 114.705 13.1322 114.806 13.2941C115.106 14.1267 114.947 14.989 114.964 15.8381C114.978 16.5022 115.062 17.1795 114.806 17.8238C114.705 17.9857 114.671 18.1939 114.462 18.2765L114.462 18.2732Z" fill="#ADADAD"/>
<path d="M88.9387 3.50436C89.1443 3.5341 89.1511 3.686 89.1511 3.84129C89.1511 4.77961 89.1511 5.71794 89.1511 6.65627C89.1511 6.81155 89.1477 6.96354 88.9387 6.99327C88.4332 5.83028 88.4265 4.66728 88.9387 3.50098L88.9387 3.50436Z" fill="#ADADAD"/>
<path d="M114.806 17.8238C114.806 16.3139 114.806 14.804 114.806 13.2941C114.994 13.5254 115.149 13.7731 115.149 14.0837C115.362 15.0683 115.331 16.0529 115.149 17.0375C115.149 17.348 114.991 17.5925 114.802 17.8271L114.806 17.8238Z" fill="#ADADAD"/>
<path d="M94.328 43.142C95.3997 43.1519 96.4747 43.1651 97.5465 43.175C97.5465 43.2014 97.5465 43.2279 97.5465 43.2543C95.4232 43.2609 93.2999 43.2675 91.1766 43.2741C91.0654 43.2741 90.9441 43.2906 90.8665 43.175C92.0192 43.1651 93.1718 43.1519 94.3245 43.142L94.328 43.142Z" fill="#ADADAD"/>
<path d="M115.153 17.0341C115.153 16.0495 115.153 15.0649 115.153 14.0803C115.395 14.381 115.382 14.7411 115.385 15.0946C115.463 15.4019 115.466 15.7125 115.385 16.0198C115.399 16.3766 115.338 16.7202 115.153 17.0341Z" fill="#ADADAD"/>
<path d="M105.716 43.1452C105.753 43.1552 105.794 43.1651 105.831 43.175C105.831 43.2014 105.831 43.2279 105.831 43.2543C104.412 43.2543 102.993 43.2543 101.574 43.2543C101.574 43.2279 101.574 43.2014 101.574 43.175C102.228 43.1651 102.878 43.1552 103.532 43.142C104.26 43.142 104.988 43.1419 105.716 43.1419V43.1452Z" fill="#ADADAD"/>
<path d="M101.574 43.175C101.574 43.2014 101.574 43.2279 101.574 43.2543C100.233 43.2543 98.8912 43.2543 97.5465 43.2543C97.5465 43.2279 97.5465 43.2014 97.5465 43.175C97.624 43.1651 97.7015 43.152 97.7791 43.1421C98.8137 43.1421 99.8482 43.142 100.886 43.142C101.115 43.1519 101.345 43.1618 101.577 43.175H101.574Z" fill="#ADADAD"/>
<path d="M105.831 43.2543C105.831 43.2279 105.831 43.2014 105.831 43.175C106.329 43.1651 106.828 43.1553 107.327 43.1454C107.711 43.1454 108.095 43.1453 108.476 43.1453C108.665 43.1519 108.851 43.1586 109.039 43.1652C109.087 43.1883 109.1 43.2082 109.087 43.2313C109.07 43.2544 109.056 43.2643 109.039 43.2643C109.002 43.2709 108.965 43.2742 108.931 43.2842C107.9 43.2742 106.866 43.2643 105.834 43.2544L105.831 43.2543Z" fill="#ADADAD"/>
<path d="M119.962 40.7895C119.841 40.7036 119.871 40.5714 119.865 40.4558C119.78 40.3567 119.73 40.2443 119.726 40.1122C119.713 39.947 119.777 39.8049 119.861 39.6694C119.861 39.5538 119.868 39.4381 119.871 39.3225C120.111 39.8016 119.939 40.3038 119.962 40.7928V40.7895Z" fill="#ADADAD"/>
<path d="M111.351 20.0472C111.392 20.0572 111.432 20.0671 111.472 20.077C111.058 20.2884 110.62 20.1364 110.195 20.1596C110.199 20.1298 110.202 20.1035 110.205 20.0737C110.586 20.0638 110.97 20.0572 111.351 20.0472Z" fill="#ADADAD"/>
<path d="M89.1443 55.0825C88.8039 55.0825 88.4635 55.0825 88.1231 55.0825C88.0827 55.0693 88.0692 55.0527 88.0759 55.0329C88.0861 55.0098 88.0962 54.9999 88.1096 54.9999C88.4568 54.9999 88.8073 54.9999 89.1544 54.9999C89.1881 55.023 89.1982 55.0428 89.1848 55.0594C89.1713 55.0726 89.1578 55.0792 89.1443 55.0792V55.0825Z" fill="#ADADAD"/>
<path d="M115.385 16.0198C115.385 15.7125 115.385 15.4019 115.385 15.0946C115.557 15.4019 115.557 15.7125 115.385 16.0198Z" fill="#ADADAD"/>
<path d="M31.8663 0.0285163C31.5697 0.213539 31.2461 0.0879878 30.9361 0.11442C31.2293 -0.0871227 31.5562 0.0417322 31.8663 0.0285163Z" fill="#ADADAD"/>
<path d="M88.1096 55.0033C88.113 55.0297 88.1198 55.0562 88.1231 55.0859C87.8131 55.0859 87.503 55.0859 87.1929 55.0859C87.4828 54.8943 87.8063 55.0264 88.113 55.0066L88.1096 55.0033Z" fill="#ADADAD"/>
<path d="M34.2894 0.111172C34.0164 0.0946519 33.7333 0.210291 33.4805 0.0252686C33.7468 0.0252686 34.013 0.0252686 34.2759 0.0252686C34.313 0.0384844 34.3298 0.0550043 34.3197 0.0748281C34.3096 0.0979559 34.2995 0.107868 34.2894 0.107868V0.111172Z" fill="#ADADAD"/>
<path d="M89.1443 55.0825C89.1477 55.056 89.1544 55.0298 89.1578 55.0001C89.4274 55.0199 89.7105 54.8911 89.9599 55.0794C89.6869 55.0794 89.414 55.0792 89.1443 55.0792V55.0825Z" fill="#ADADAD"/>
<path d="M65.323 30.99C65.1444 30.7819 65.2489 30.5374 65.2388 30.3061C65.2759 30.2631 65.3028 30.2664 65.3264 30.3193C65.3264 30.544 65.3264 30.7653 65.3264 30.99H65.323Z" fill="#ADADAD"/>
<path d="M93.6436 0.669379C93.4077 0.669379 93.1751 0.669379 92.9392 0.666075C93.1751 0.527308 93.4111 0.5207 93.6436 0.669379Z" fill="#ADADAD"/>
<path d="M65.3568 33.6993C65.3568 33.4713 65.3568 33.2433 65.3568 33.0187C65.5018 33.2467 65.5051 33.4746 65.3568 33.6993Z" fill="#ADADAD"/>
<path d="M65.3232 30.3193C65.2929 30.316 65.2659 30.3127 65.2356 30.3061C65.2356 30.121 65.2356 29.9327 65.2356 29.7477C65.4108 29.9162 65.3232 30.1243 65.3232 30.3193Z" fill="#ADADAD"/>
<path d="M34.2894 0.111172C34.286 0.0814361 34.2793 0.0550043 34.2759 0.0252686C34.4748 0.0252686 34.687 -0.0641028 34.8623 0.107704C34.6702 0.107704 34.4815 0.107868 34.2894 0.107868V0.111172Z" fill="#ADADAD"/>
<path d="M28.2835 22.9911C28.297 21.6398 29.5744 20.2356 31.0843 20.1728C31.1921 20.1695 31.2966 20.1134 31.4011 20.0836C32.2335 20.1728 33.0694 20.0968 33.9018 20.1266C34.1074 20.1332 34.3197 20.0836 34.5186 20.1728C36.0352 20.1662 37.4103 21.4515 37.508 22.8722C37.5889 23.0341 37.5518 23.2059 37.5518 23.3711C37.5518 29.6552 37.5518 35.9427 37.5518 42.2268C37.5518 42.392 37.5856 42.5638 37.508 42.7257C37.444 44.0242 36.0689 45.3458 34.6231 45.4416C33.4704 45.4845 32.3212 45.5011 31.1685 45.4317C29.9114 45.4482 28.2869 44.196 28.2701 42.4878C28.2262 42.359 28.2397 42.2268 28.2397 42.098C28.2397 35.8766 28.2397 29.6585 28.2397 23.4371C28.2397 23.2885 28.2161 23.1365 28.2768 22.9944L28.2835 22.9911Z" fill="#ADADAD"/>
<path d="M34.6263 63.9009C34.4713 63.891 34.3197 63.8809 34.1647 63.871C33.6288 62.7972 33.2042 61.6739 32.7188 60.577C31.9673 58.8787 31.2359 57.1706 30.5012 55.4657C30.4068 55.2443 30.2788 55.0263 30.3428 54.7686C30.39 54.7124 30.4405 54.7091 30.4978 54.7554L31.7549 54.7818C32.3683 54.8512 32.9817 54.8479 33.5951 54.7818C34.8354 54.8181 36.0487 54.5604 37.2721 54.4117C37.5249 54.5043 37.562 54.7488 37.6496 54.947C38.7315 57.4316 39.8268 59.9096 40.8851 62.404C40.9491 62.556 41.0536 62.7047 40.966 62.8831C39.7661 63.2796 38.5259 63.4878 37.2755 63.6629C36.3992 63.7851 35.5229 63.9007 34.6332 63.8974L34.6263 63.9009Z" fill="#ADADAD"/>
<path d="M40.9593 62.8866C40.1134 60.9538 39.2708 59.0176 38.4248 57.0848C38.0373 56.196 37.653 55.304 37.2655 54.4119C38.8158 54.0088 40.356 53.5793 41.8322 52.9581C42.3142 52.7566 42.7826 52.522 43.2578 52.304C43.5342 52.3634 43.6555 52.5716 43.7566 52.8029C44.8183 55.2048 45.8563 57.6167 46.8944 60.0286C46.9888 60.2467 47.1202 60.4747 46.9348 60.7159C45.1283 61.6674 43.1972 62.2952 41.2424 62.8701C41.1548 62.8965 41.0537 62.8833 40.9593 62.8866Z" fill="#ADADAD"/>
<path d="M30.3698 54.7721C31.5899 57.6069 32.8065 60.445 34.0333 63.2765C34.1176 63.4715 34.185 63.6565 34.1681 63.8713C34.094 63.8812 34.0198 63.8944 33.9457 63.9043C33.1335 63.9043 32.3246 63.9076 31.5123 63.9109C31.2832 63.9109 31.054 63.9076 30.8282 63.9043C30.0564 63.8845 29.2745 63.9274 28.533 63.6532C26.8748 63.042 25.766 61.9483 25.4188 60.1972C25.3885 60.0386 25.2672 59.8933 25.3312 59.7182C25.3986 59.3778 25.3953 59.0408 25.3312 58.7005C25.5874 56.4968 27.2961 54.9704 29.443 54.749C29.753 54.6829 30.0665 54.6565 30.3732 54.7655L30.3698 54.7721Z" fill="#ADADAD"/>
<path d="M61.6697 46.7698C61.4573 47.3679 61.0259 47.837 60.6653 48.3491C60.5912 48.4549 60.4665 48.5309 60.5238 48.6861C60.0149 49.2974 59.6846 50.0309 59.1285 50.6091C58.8892 50.5562 58.8083 50.3579 58.7274 50.1696C57.3051 46.9152 55.9065 43.6509 54.4808 40.3998C54.4438 40.3106 54.4539 40.2148 54.4269 40.1256C55.0639 38.4207 55.4885 36.6663 55.7818 34.8788C55.8188 34.641 55.802 34.3965 55.8087 34.152C56.2165 34.0297 56.2907 34.37 56.4019 34.598C56.9041 35.6322 57.322 36.7026 57.7803 37.7533C59.0611 40.6872 60.3148 43.6311 61.609 46.5584C61.6393 46.6278 61.6596 46.7005 61.6697 46.7731V46.7698Z" fill="#ADADAD"/>
<path d="M61.6697 46.7698C61.1136 46.1983 60.9585 45.4284 60.6518 44.7379C59.4689 42.0914 58.3364 39.4251 57.1838 36.7654C56.8636 36.0286 56.5502 35.2885 56.2266 34.5517C56.1458 34.37 56.0783 34.152 55.8087 34.1454C55.9739 33.8612 55.866 33.544 55.9233 33.2467C56.0109 33.0121 55.9435 32.7676 55.9638 32.5297C55.9638 32.2555 55.9638 31.9813 55.9638 31.707C55.9435 31.4658 56.0109 31.2213 55.9199 30.9868C55.7649 28.6244 55.2492 26.338 54.4269 24.1144C54.7437 23.9889 54.7134 24.2896 54.7808 24.4185C55.6031 25.9614 56.2064 27.6002 56.9176 29.1894C57.9859 31.5848 59.0071 34 60.0486 36.4053C61.0394 38.6916 62.0303 40.978 63.0144 43.2643C63.0751 43.4064 63.1155 43.5451 63.2739 43.6079C62.8324 44.7048 62.3639 45.7919 61.6663 46.7632L61.6697 46.7698Z" fill="#ADADAD"/>
<path d="M54.4303 40.1221C54.9965 40.9282 55.2728 41.8699 55.6638 42.7553C56.776 45.2697 57.8511 47.8038 58.9431 50.328C58.9869 50.4305 59.0678 50.5164 59.1318 50.6089C58.2252 51.9139 57.231 53.1463 56.0312 54.2069C55.6503 54.1871 55.62 53.8501 55.5189 53.6188C54.5347 51.3192 53.5203 49.0296 52.5362 46.73C52.2868 46.1419 51.9834 45.5769 51.7812 44.969C52.8462 43.4492 53.7225 41.8335 54.4235 40.1254L54.4303 40.1221Z" fill="#ADADAD"/>
<path d="M46.9348 60.7159C46.7292 59.6982 46.1932 58.8028 45.7988 57.8579C45.1079 56.1993 44.353 54.5671 43.6486 52.9119C43.5475 52.6773 43.3927 52.5055 43.2578 52.304C44.7711 51.5374 46.1561 50.5793 47.5076 49.5682C48.0637 50.1497 48.2019 50.9328 48.5187 51.6266C49.4118 53.576 50.224 55.5583 51.0902 57.5209C51.1947 57.7555 51.3598 57.9901 51.1981 58.2643C49.8601 59.2191 48.4445 60.0385 46.938 60.7158L46.9348 60.7159Z" fill="#ADADAD"/>
<path d="M51.788 44.9657C52.4082 45.6992 52.634 46.621 53.0114 47.4668C53.9282 49.512 54.791 51.5836 55.6841 53.6386C55.7717 53.8402 55.8391 54.0648 56.0346 54.2069C55.3167 54.9701 54.5955 55.73 53.7327 56.3479C53.4226 56.3578 53.3822 56.1001 53.2979 55.9084C52.125 53.2421 51.0162 50.5527 49.8029 47.9062C49.7288 47.741 49.6951 47.589 49.8029 47.4272C50.4635 46.6078 51.1241 45.7851 51.7846 44.9657H51.788Z" fill="#ADADAD"/>
<path d="M49.8063 47.4273C49.9782 48.098 50.3456 48.6927 50.6118 49.3237C51.5252 51.4977 52.4722 53.6618 53.4125 55.8259C53.4934 56.011 53.5507 56.2191 53.7361 56.3447C52.9575 57.0682 52.088 57.6795 51.1983 58.261C50.6489 56.7246 49.9277 55.2577 49.2974 53.7544C48.711 52.3535 48.1077 50.9625 47.5078 49.5649C48.2728 48.8513 49.0413 48.1376 49.8063 47.424V47.4273Z" fill="#ADADAD"/>
<path d="M37.5114 42.7225C37.5114 36.1046 37.5114 29.4867 37.5114 22.8689C37.6934 23.0143 37.6125 23.2191 37.6125 23.3942C37.6159 29.6619 37.6159 35.9295 37.6125 42.2004C37.6125 42.3755 37.6934 42.5804 37.5114 42.7258V42.7225Z" fill="#ADADAD"/>
<path d="M28.2835 22.9911C28.2903 27.5968 28.2971 32.206 28.2971 36.8117C28.2971 38.7016 28.2836 40.5948 28.2735 42.4846C28.1185 42.3029 28.1859 42.0882 28.1859 41.8899C28.1825 35.7875 28.1825 29.6884 28.1859 23.5859C28.1859 23.3877 28.1185 23.1696 28.2803 22.9945L28.2835 22.9911Z" fill="#ADADAD"/>
<path d="M31.1718 45.4283C32.3244 45.4283 33.4737 45.435 34.6263 45.4383C33.4737 45.5803 32.3244 45.5968 31.1718 45.4283Z" fill="#ADADAD"/>
<path d="M34.5219 20.1695C33.6254 20.1695 32.7289 20.1761 31.8324 20.1761C31.6841 20.1761 31.5224 20.2092 31.4011 20.0836C32.338 20.077 33.2749 20.0704 34.2118 20.0671C34.3231 20.0671 34.4444 20.0572 34.5185 20.1695H34.5219Z" fill="#ADADAD"/>
<path d="M3.21863 35.9294C4.17917 35.7774 5.13631 35.7776 6.09685 35.9295C5.13631 35.9295 4.17917 35.9294 3.21863 35.9294Z" fill="#ADADAD"/>
<path d="M33.5917 54.7819C32.9783 54.9305 32.3649 54.9338 31.7516 54.7819C32.3649 54.7819 32.9783 54.7819 33.5917 54.7819Z" fill="#ADADAD"/>
<path d="M31.7516 9.45807C32.1964 9.25322 32.6717 9.41842 33.13 9.35565C33.285 9.38538 33.4637 9.31253 33.5917 9.4546C32.9783 9.4546 32.365 9.4546 31.7482 9.4579L31.7516 9.45807Z" fill="#ADADAD"/>
<path d="M9.32901 32.6915C9.35598 32.3115 9.22453 31.9217 9.41664 31.5549C9.40316 31.9349 9.54134 32.3248 9.32901 32.6915Z" fill="#ADADAD"/>
<path d="M25.3278 58.7037C25.4828 59.044 25.4794 59.3811 25.3278 59.7214C25.3278 59.3811 25.3278 59.044 25.3278 58.7037Z" fill="#ADADAD"/>
<path d="M30.3698 54.7721C30.0597 54.7655 29.7495 54.7588 29.4394 54.7555C29.79 54.5903 30.1438 54.587 30.4944 54.7555C30.4539 54.7621 30.4101 54.7687 30.3697 54.7753L30.3698 54.7721Z" fill="#ADADAD"/>
<path d="M56.011 31.6706C56.011 31.968 56.011 32.2686 56.011 32.566C55.9908 32.6122 55.9638 32.6155 55.9301 32.5792C55.9301 32.2719 55.9301 31.9647 55.9301 31.6574C55.9638 31.6177 55.9908 31.621 56.011 31.6706Z" fill="#ADADAD"/>
<path d="M56.011 31.6706C55.9841 31.6673 55.9571 31.664 55.9301 31.6574C55.9301 31.4327 55.93 31.2114 55.9266 30.9867C56.1086 31.1948 55.9974 31.4393 56.0143 31.6706L56.011 31.6706Z" fill="#ADADAD"/>
<path d="M55.9301 32.5826C55.9571 32.5759 55.9841 32.5726 56.011 32.5693C55.9975 32.7973 56.1054 33.0418 55.9234 33.25C55.9234 33.0286 55.9268 32.8039 55.9301 32.5826Z" fill="#ADADAD"/>
<path d="M30.2517 9.57033C30.4438 9.44148 30.6393 9.40844 30.8348 9.56372C30.6393 9.56372 30.4438 9.56703 30.2517 9.57033Z" fill="#ADADAD"/>
<path d="M64.895 54.2037C65.4376 54.4879 65.8353 54.9174 66.1521 55.4229C65.6601 55.0892 65.2556 54.6696 64.895 54.2037Z" fill="#ADADAD"/>
<path d="M73.5061 51.045C73.5061 51.3093 73.5061 51.5703 73.5061 51.8346C73.2601 51.4382 73.4488 51.0153 73.3881 50.5659C73.5802 50.7278 73.4724 50.8996 73.5061 51.0483V51.045Z" fill="#ADADAD"/>
<path d="M72.994 53.1267C73.0681 53.3448 72.9805 53.4472 72.8726 53.5529C72.7715 53.3877 72.8895 53.2853 72.994 53.1267Z" fill="#ADADAD"/>
<path d="M112.042 43.1586C112.5 43.1586 112.962 43.1586 113.424 43.1586C114.688 43.1586 115.955 43.1585 117.219 43.1585C116.855 43.3898 116.45 43.2181 116.07 43.2743C115.685 43.2743 115.301 43.2743 114.92 43.2743C114.499 43.2743 114.078 43.2743 113.657 43.2743C113.313 43.2743 112.966 43.2743 112.622 43.2743C112.315 43.2743 112.008 43.2743 111.702 43.2743C111.624 43.2743 111.55 43.271 111.473 43.2676C111.435 43.2049 111.449 43.1487 111.506 43.1057C111.698 43.0132 111.88 43.0099 112.046 43.1586H112.042Z" fill="#ADADAD"/>
<path d="M111.469 43.1618C111.469 43.1981 111.469 43.2345 111.469 43.2675C111.122 43.2675 110.778 43.2708 110.431 43.2742C110.087 43.2742 109.74 43.2741 109.396 43.2741C109.278 43.2708 109.157 43.2676 109.039 43.2643C109.046 43.2313 109.046 43.1982 109.039 43.1652C109.275 43.1652 109.508 43.1585 109.744 43.1552C110.145 43.0164 110.559 42.9767 110.981 42.9933C111.156 43.0164 111.341 43.0098 111.469 43.1585V43.1618Z" fill="#ADADAD"/>
<path d="M111.007 43.1585C110.586 43.1585 110.165 43.1585 109.743 43.1585C109.925 42.9372 110.212 42.9174 110.458 42.8348C113.592 41.7742 116.727 40.7234 119.861 39.6694C119.861 39.8181 119.861 39.9702 119.861 40.1189C119.238 40.4493 118.574 40.6839 117.9 40.892C116.275 41.3909 114.694 42.0088 113.07 42.511C112.382 42.7224 111.715 43 111.007 43.1619V43.1585Z" fill="#ADADAD"/>
<path d="M111.007 43.1585C111.375 42.8083 111.884 42.7422 112.329 42.5869C114.381 41.87 116.454 41.2158 118.523 40.5484C118.968 40.403 119.349 40.0627 119.861 40.1189C119.861 40.2312 119.861 40.3435 119.861 40.4559C117.347 41.2951 114.833 42.131 112.322 42.9768C112.217 43.0098 112.133 43.0991 112.042 43.1618C111.85 43.1618 111.658 43.1618 111.466 43.1618C111.311 43.1618 111.159 43.1618 111.004 43.1618L111.007 43.1585Z" fill="#ADADAD"/>
</svg>
